<svg viewBox="0 0 512 512" fill="none" xmlns="http://www.w3.org/2000/svg">
  <defs>
    <linearGradient id="bg-grad" x1="0" y1="0" x2="512" y2="512" gradientUnits="userSpaceOnUse">
      <stop offset="0%" stop-color="#4F46E5" />
      <stop offset="50%" stop-color="#8B5CF6" />
      <stop offset="100%" stop-color="#A855F7" />
    </linearGradient>
  </defs>
  <circle cx="256" cy="256" r="256" fill="url(#bg-grad)" />
  <path
    d="M256 80C176 80 120 136 120 216V390C120 398 126 404 134 404H180C202 404 212 368 228 368C244 368 250 404 256 404C262 404 268 368 284 368C300 368 310 404 332 404H378C386 404 392 398 392 390V216C392 136 336 80 256 80Z"
    fill="white"
  />
  <circle cx="206" cy="220" r="28" fill="#1E1B4B" />
  <circle cx="214" cy="212" r="10" fill="white" />
  <circle cx="306" cy="220" r="28" fill="#1E1B4B" />
  <circle cx="314" cy="212" r="10" fill="white" />
  <path
    d="M216 295C216 295 232 320 256 320C280 320 296 295 296 295"
    stroke="#1E1B4B"
    stroke-width="12"
    stroke-linecap="round"
  />
</svg>
