<svg xmlns="http://www.w3.org/2000/svg" viewBox="0 0 32 32">
  <defs>
    <linearGradient id="bg" x1="0" y1="0" x2="32" y2="32" gradientUnits="userSpaceOnUse">
      <stop offset="0%" stop-color="#1e1b4b"/>
      <stop offset="100%" stop-color="#0f0a2e"/>
    </linearGradient>
    <linearGradient id="g" x1="0" y1="0" x2="32" y2="32" gradientUnits="userSpaceOnUse">
      <stop offset="0%" stop-color="#a78bfa"/>
      <stop offset="50%" stop-color="#818cf8"/>
      <stop offset="100%" stop-color="#6366f1"/>
    </linearGradient>
    <linearGradient id="f" x1="16" y1="4" x2="16" y2="28" gradientUnits="userSpaceOnUse">
      <stop offset="0%" stop-color="#c4b5fd" stop-opacity="0.5"/>
      <stop offset="100%" stop-color="#6366f1" stop-opacity="0.15"/>
    </linearGradient>
  </defs>
  <rect width="32" height="32" rx="7" fill="url(#bg)"/>
  <path d="M16 5.5C12 5.5 9 8.5 9 12.5V24C9 24.3 9.2 24.5 9.5 24.5H12C12 24.5 13 22 14.5 22C16 22 16 24.5 16 24.5C16 24.5 16 22 17.5 22C19 22 20 24.5 20 24.5H22.5C22.8 24.5 23 24.3 23 24V12.5C23 8.5 20 5.5 16 5.5Z" fill="url(#f)" stroke="url(#g)" stroke-width="1.2" stroke-linecap="round" stroke-linejoin="round"/>
  <circle cx="13.2" cy="13.5" r="1.8" fill="url(#g)"/>
  <circle cx="12.7" cy="13" r="0.6" fill="white" opacity="0.7"/>
  <circle cx="18.8" cy="13.5" r="1.8" fill="url(#g)"/>
  <circle cx="18.3" cy="13" r="0.6" fill="white" opacity="0.7"/>
  <path d="M13.5 18.5C13.5 18.5 14.5 20 16 20C17.5 20 18.5 18.5 18.5 18.5" stroke="url(#g)" stroke-width="1" stroke-linecap="round"/>
</svg>
